<svg width="2000" height="2000" viewBox="0 0 2000 2000" fill="none" xmlns="http://www.w3.org/2000/svg">
<g clip-path="url(#clip0_1066_78)">
<rect width="2000" height="2000" fill="#333333"/>
<path d="M2000 0H0V2000H2000V0Z" fill="#224A5C"/>
<path d="M1000.17 1662.17C1368.08 1662.17 1666.33 1364.14 1666.33 996.502C1666.33 628.864 1368.08 330.835 1000.17 330.835C632.253 330.835 334 628.864 334 996.502C334 1364.14 632.253 1662.17 1000.17 1662.17Z" fill="white"/>
<path d="M1000.24 1529.24C1291.42 1529.24 1527.47 1293.41 1527.47 1002.5C1527.47 711.591 1291.42 475.763 1000.24 475.763C709.052 475.763 473 711.591 473 1002.5C473 1293.41 709.052 1529.24 1000.24 1529.24Z" fill="#224A5C"/>
<path d="M1172 1289.67C1148.11 1289.67 1127.81 1281.31 1111.08 1264.58C1094.36 1247.86 1086 1227.56 1086 1203.67C1086 1200.32 1086.24 1196.86 1086.72 1193.28C1087.19 1189.69 1087.91 1186.47 1088.87 1183.6L886.767 1066.07C878.644 1073.23 869.567 1078.85 859.533 1082.91C849.5 1086.97 838.989 1089 828 1089C804.111 1089 783.806 1080.64 767.083 1063.92C750.361 1047.19 742 1026.89 742 1003C742 979.111 750.361 958.806 767.083 942.083C783.806 925.361 804.111 917 828 917C838.989 917 849.5 919.031 859.533 923.092C869.567 927.153 878.644 932.767 886.767 939.933L1088.87 822.4C1087.91 819.533 1087.19 816.308 1086.72 812.725C1086.24 809.142 1086 805.678 1086 802.333C1086 778.445 1094.36 758.139 1111.08 741.417C1127.81 724.695 1148.11 716.333 1172 716.333C1195.89 716.333 1216.19 724.695 1232.92 741.417C1249.64 758.139 1258 778.445 1258 802.333C1258 826.222 1249.64 846.528 1232.92 863.25C1216.19 879.972 1195.89 888.333 1172 888.333C1161.01 888.333 1150.5 886.303 1140.47 882.242C1130.43 878.181 1121.36 872.567 1113.23 865.4L911.133 982.933C912.089 985.8 912.806 989.025 913.283 992.608C913.761 996.192 914 999.656 914 1003C914 1006.34 913.761 1009.81 913.283 1013.39C912.806 1016.98 912.089 1020.2 911.133 1023.07L1113.23 1140.6C1121.36 1133.43 1130.43 1127.82 1140.47 1123.76C1150.5 1119.7 1161.01 1117.67 1172 1117.67C1195.89 1117.67 1216.19 1126.03 1232.92 1142.75C1249.64 1159.47 1258 1179.78 1258 1203.67C1258 1227.56 1249.64 1247.86 1232.92 1264.58C1216.19 1281.31 1195.89 1289.67 1172 1289.67ZM1172 831C1180.12 831 1186.93 828.253 1192.42 822.758C1197.92 817.264 1200.67 810.456 1200.67 802.333C1200.67 794.211 1197.92 787.403 1192.42 781.908C1186.93 776.414 1180.12 773.667 1172 773.667C1163.88 773.667 1157.07 776.414 1151.57 781.908C1146.08 787.403 1143.33 794.211 1143.33 802.333C1143.33 810.456 1146.08 817.264 1151.57 822.758C1157.07 828.253 1163.88 831 1172 831ZM828 1031.67C836.122 1031.67 842.931 1028.92 848.425 1023.43C853.919 1017.93 856.667 1011.12 856.667 1003C856.667 994.878 853.919 988.07 848.425 982.575C842.931 977.081 836.122 974.333 828 974.333C819.878 974.333 813.069 977.081 807.575 982.575C802.081 988.07 799.333 994.878 799.333 1003C799.333 1011.12 802.081 1017.93 807.575 1023.43C813.069 1028.92 819.878 1031.67 828 1031.67ZM1172 1232.33C1180.12 1232.33 1186.93 1229.59 1192.42 1224.09C1197.92 1218.6 1200.67 1211.79 1200.67 1203.67C1200.67 1195.54 1197.92 1188.74 1192.42 1183.24C1186.93 1177.75 1180.12 1175 1172 1175C1163.88 1175 1157.07 1177.75 1151.57 1183.24C1146.08 1188.74 1143.33 1195.54 1143.33 1203.67C1143.33 1211.79 1146.08 1218.6 1151.57 1224.09C1157.07 1229.59 1163.88 1232.33 1172 1232.33Z" fill="#AABDCF"/>
</g>
<defs>
<clipPath id="clip0_1066_78">
<rect width="2000" height="2000" fill="white"/>
</clipPath>
</defs>
</svg>
