<svg width="2000" height="2000" viewBox="0 0 2000 2000" fill="none" xmlns="http://www.w3.org/2000/svg">
<rect width="2000" height="2000" fill="#224A5C"/>
<ellipse cx="1037.98" cy="996.502" rx="666.167" ry="665.667" fill="white"/>
<ellipse cx="1037.98" cy="1002.5" rx="527.236" ry="526.737" fill="#224A5C"/>
<path d="M1024.99 945.864C1067.22 945.864 1101.45 979.946 1101.45 1021.99C1101.45 1064.03 1067.22 1098.11 1024.99 1098.11C982.759 1098.11 948.526 1064.03 948.526 1021.99C948.526 979.946 982.759 945.864 1024.99 945.864Z" fill="#AABDCF"/>
<path d="M1024.99 1197.08C1067.22 1197.08 1101.45 1231.16 1101.45 1273.2C1101.45 1315.24 1067.22 1349.33 1024.99 1349.33C982.759 1349.33 948.526 1315.24 948.526 1273.2C948.526 1231.16 982.759 1197.08 1024.99 1197.08Z" fill="#AABDCF"/>
<path d="M1024.99 694.653C1067.22 694.653 1101.45 728.735 1101.45 770.777C1101.45 812.82 1067.22 846.902 1024.99 846.902C982.759 846.902 948.526 812.82 948.526 770.777C948.526 728.735 982.759 694.653 1024.99 694.653Z" fill="#AABDCF"/>
</svg>
